<mxfile host="app.diagrams.net" agent="Mozilla/5.0 (Windows NT 10.0; Win64; x64; rv:139.0) Gecko/20100101 Firefox/139.0" version="27.2.0">
  <diagram name="Strona-1" id="NGluL7eN6mUZX841tWYj">
    <mxGraphModel dx="1388" dy="653" grid="1" gridSize="10" guides="1" tooltips="1" connect="1" arrows="1" fold="1" page="1" pageScale="1" pageWidth="827" pageHeight="1169" math="0" shadow="0">
      <root>
        <mxCell id="0" />
        <mxCell id="1" parent="0" />
        <mxCell id="dpX90u_CL4Nn1USDhQHo-9" value="" style="shape=image;verticalLabelPosition=bottom;labelBackgroundColor=default;verticalAlign=top;aspect=fixed;imageAspect=0;image=data:image/png,iVBORw0KGgoAAAANSUhEUgAAABwAAAAWCAYAAADTlvzyAAACNklEQVRIS2PU0TP+z0BHwGht7zxqIVUDfGgFqZyiCgMbGzvD/Ts3Gf7+/UNUSJDtQ3agRfFZxQyMjIwM29avYHj84C71LQT5yMrBleHovp0M//7/Z/AJjgJbcu7kUYbb1y8zOHr4Ai2+x3Dm+CGclpPkw6iUHAZeXn6wYf+BFoJ8BwPI/GXzpjJ8/vgBq6UkWSiroMzgGRAOt+jP7z8Mf/7+ZuDg4IQbfuH0MYaTR/ZT7kM2djYGUXFpBu+gSLCFt65dZjh+aA/Dv39/GNS1DMBBDQKnjh5guHHlPMP3b9/I96G8shqDm08QAxMTM9gQkM8Wz57IEBydzMDFxc2wYeVCBmsHNwZJGTl4cB/Zt4Ph2qVzGJYSFaRqWroMju5+cM0/fnxnWDF3KkNMej4DCwsrw/YNKxk0dQwYFFTU4WpOHzsATkzogCgLQYZKSssCfSDPYGBqCQ7Sowd3Mzx7eJ+Bi4eH4fvXbwxBUYkMTMzMDHdvXmO4A8TPnjxk+PXzB3kWwnTx8QsyRCRmwhPN8yePGH4CDZWVV2JgZmEBKzuwczPDzWuXKE80IBOCY1IYRETFcRoGkvj9+xfDigXTGb59+UJ+ooHpNLawZTCxtGO4cPo42GBTK3uwFCgYnz6+z2Bh68rw+uVTYJyuwlnUERWHyE4FBeunj+8ZODi5GOIzCsFSu7esY7h3+zoDJxcXON7+/v1HnSBFN0VT15CBjZ2d4frlC1gTCDZbSfYh3ggkQnL4WwgAYaLjD9HcwWsAAAAASUVORK5CYII=;" vertex="1" parent="1">
          <mxGeometry x="276" y="174.5" width="28" height="22" as="geometry" />
        </mxCell>
        <mxCell id="dpX90u_CL4Nn1USDhQHo-1" value="" style="shape=image;verticalLabelPosition=bottom;labelBackgroundColor=default;verticalAlign=top;aspect=fixed;imageAspect=0;image=data:image/png,iVBORw0KGgoAAAANSUhEUgAAAJMAAAAfCAYAAADjl/+2AAAEYUlEQVR4Xu2bXUgUURTH/7MmWlhESQVqGyv0AX0SZCIRKtqDRFBC0UNS1CIUBRtkD/aUEAYJRkTZh9lDFFgv0kNJ34n1ViQVQQu2u2BQ1oNlput279zZdWacGRXvDjUdBfFj7jnn/u9vzvnPgMrK1esToA9SQIICCsEkQUUKoSpAMBEI0hQgmKRJSYGUks3l5JmIAykKEExSZKQgqmeizkQgyFKAYJKlJMWhzkQMyFOAOpM8Lf/7SATTf4+APAHSBlPW3EVYETyHjOwcKIp4+5BIKBj58Q1vLx7E8ED/BLsoxYmOnYgeqUVrWN6GeaSy+g7sihxBsE1C4NJ63N0ZweHaNnzEdGvm60vQtbUBD+Vu2ZVoaYPJX3UImXNyobBP/UcCCfz6GkP0/iWCaZwCZpgC2HuhGdXRJlQ1PHIFiOkkSQtM2Qv8WLhhGxLxEcvalIxM9D2/haHvfQ61T/cutw9NnWk6yNivTQtMs5eswfJ9Zxwr7jkfxGCf05gxw6TdpXkibKydjalnm9DSXIxu3SjkoByFdicHatjfqyGWxNCuXecIk82awpoLOFudSq6NNRbWccxZ1JwcrRZ58ps7sDGp2kuxB2Ot9vH4dSVdTUAopMV4iTMuj0upMHF/tHTPKcQeXMOymkZHmN5fDSG/MogP148j/mvA4lojTEKsrTipdnsu6jHgdC16d+v9j35MmEYGPzy2pJF5G7+tZ+JrQkCTlidQir3+XrRit84XASpYxd0CKAeY7GpuDdvk6eU3RwFu6iDQw2QFVnG38H7qTVSUBEhAl38rqVd6OpE5qlSYCir2Y1b+ckQ7r6Cg8gAwGhf5fD72hXkn3c+Rey0o2BLEj8g7RDovTwCTED9112pXv+CH3jsGiXqwJV3CX/DvQ0WmuEJs2MFkAGNs6fhOpgPdb2fAHWqGfo2uRLVb2cHkH/9AotVbxaA21yh1lE+SRWkw5Sxeidy1FRgd+Q1f1kzEB3m3EeZ78HOYcTSMnLxl7ImO/yaBGayLxYd+wpeZhS+vOjHwqcdUsr4zOT3lGLtUqnvpwTJFthXaAaaxrsiDTRYmmyczmzyYECZTPK/CNH9NBQI76iwZ7u95gtHhIeSuq7T8e/h2I76+7nSASTzOp7wQu7IwEMDHsPBcfOzUoRuRYuCG+oiePHDdyGKjsTAQZmtMrwbUDgbNX5jGT3KNoftMbcxZ12yTRx1/RmCmMub0rzv+6c7kCNObx6xjcZi2TAEmzWyiXTO7RvMJ6AymZmaZwza+OzKYXJZaM7XCTEM15E838e+jY2bVcY2FATfkhniUn0LNWsRUbcL7sFpjYt9Gf+dswD0EUzkC2+uQSPoiDRv+ovL7u+fq+Ju3qiz1AjNJleLLQPgO70wPJjmZ6bK/VQFpnulv3SDV5Z4CBJN7Wns+E8Hk+SN2b4MEk3taez4TweT5I3ZvgwSTe1p7PhP935znj9i9DRJM7mnt+UwEk+eP2L0NEkzuae35TH8AJcQjkXwy5BEAAAAASUVORK5CYII=;" vertex="1" parent="1">
          <mxGeometry x="30" y="90" width="147" height="31" as="geometry" />
        </mxCell>
        <mxCell id="dpX90u_CL4Nn1USDhQHo-2" value="" style="shape=image;verticalLabelPosition=bottom;labelBackgroundColor=default;verticalAlign=top;aspect=fixed;imageAspect=0;image=data:image/png,iVBORw0KGgoAAAANSUhEUgAAALEAAADNCAYAAAD3yZF/AAAYGElEQVR4Xu2dbZAV1ZnH/yAKViDiMNwCjGKAYZgZXsxLFVLsaI2JSYqJqWKRTTBWYcqqrfDFVJIKn7J+yObLhlqt+CXWbk1FygTWJYRaDdZuIJnSWYuMq6siM4CAL0FhvPMSsooxvO453ef0Padvd9++ffv0Pd336RSB8Z5z+pzn+fVzn+7p/3OmrVz9uauggyyQYwtMI4hz7D2aumOBaevv/AJFYoIh1xYgiHPtPpo8RWJioBAWoEhcCDe29iII4tb2fyFWTxAXwo2tvYhMIJ7zybnYuOVbuG7mLEyD+zDkKvvXxx99iL27f46/nP+wtb1Aq2/IAplAvL7vy5g9ew57oOebK+P53LkpDA/9Pv4i+n6I/d9bK9q/h19959v4+ZvR3e/64TP4xunv4O93soa8/9dP46Fv78Sp+GettOT917+A/h8PJulNfQxYIBLiuW3zsKyzJ/K0J4+P4NzUZGibG+e1Y+Waz+Py5cuBbaZfMwOvvXQIH/zfuZrLW7r1cTx277v453t+DAf7JVvxL9uBf6oBpFGI+Rx+ei9OP3IP/pG4rulDEw0iIZ7GImf/334TN91ya+C53/vj29j/61/iasSvSxZ9ajHu2Xx/5Nz3/OJfMTVerrG+PvzDM1/HuzEir38goxCb8AqNWZcFaqYT139iNjZ/80Hwv9WD57F7fjkQms/y/HfDxm/gpUPPsQvhvshJPb3nSdze+wV2QezGhb9+HNy2ZhqwBN96/Ke49ya3+3u/EukD+3ckxCKSut309MSN/N6A6H/qZiWVAf7gRF/fxRU6Hm+3Hi88AnxfpkPDj1BaUheuwY1rQsy78UjMQZzGQzM7rrLQu//Xu8Ajcdix9m/6UFpwE4b/e5ABeheuXL3iNOVj8P+pPw8P/Q5rGcTls+857QOPGhBroMIFet0hF+RwiAVYQemJk3vDS12W9m3F4nd24p1eBvbNTynwqRAHAb0Oh5xvD/7Z93C7BNeB/Wb8mzx3Cs5s1SFiQcyN8/l1d+Bzt/c6dnr5D0Mswj4farMFi27G8u5VuHTpEq697jpc+JhFV3EBTI2/j8tXLjPAF7lpCPu/mSxqX7jwV8y49lq8Mfo6xs6crh47EuKAVEO072f5cijE2k2iPOWwAy7Um0FlNk50DoN4cfVNY+Xci33pUPL0qFVhDVt3bIhlfswHqpUHd3Stwl1f+VrgOU+9cRSXL17E8p7VgZ///j+fxomjrwd8FuV0X0TlveNCHPKkQY/slenUhNg3HkFs/pKLDTGfisyLaz3XjYT4+CguXb6Izu41dUIMVD2dAIP38Vuwi0XbxVrkrCedYDmD92RhCZYueROn+CM7XzqBJeyzN9lnVY/Y6kkn1BtTisRp4V0XxHFP2tG1En1f/hquXnHzYHnwX3C8ffIYLrM0Y+mKld4vPuTn06ZPx+B/8Uh8JPRU2s0WvxF75Cd4fpDBJfLgoBs7tw/cZ8pwH4mxH9znxtqNGDutcrOln0u9kWO5LWvq3jz60oTIGzuCOC5D9bQzAnE9E6C2ZIFGLUAQN2pB6t90CxDETXcBTaBRCxDEjVqQ+jfdAgRx011AE2jUAgRxoxak/k23AEHcdBfQBBq1ANWdaNSC1L/pFiCIm+4CmkCjFiCIG7Ug9W+6BQjipruAJtCoBQjiRi1I/ZtuAeshLpXa8ZnbVuP8+fN45dUjzt90kAVUC1gL8ZzZs3Hbbatw06IF3nyvsLfi3jhxCiOjx3GRvZNMB1mAW8AYxBs2/h1++5t9uFQnbLNmzcSqni72+u6tnhzK76oLFy7g6LET7M8bNbz4WWz80Rcx+TP2uubZFBy+5gH84M4ydj72LGrJWlM4W0NDdN+3A+vGH8XAgTMNjZOHzsYg3v6jHZgov4+nn3oSE0ySFPfo6FiCWUyu1Ll8KWbMmBHY7fz5j3CSvbleHp/E5ORUxNAEMUEcl7yAdhxiflxkUfPA/n048spLsUb76oYvORq8YyzStrfPY0qLW71+F9nL9KMslbjCPu/p7sKx4ycwevQ4QRxgAYrEsXCLbiQhlq2OvPI/sdILDvHs2Z9wuo2NlfHW2+84qcWHH57HBIu63SuWY84ct3zA4ddHY0GMY8CyFfPdqRzbjR27/ldMi0fqLVgmfjq59wfY95r7Q+nu7djaK/pMDLophJZOiL5iPK29Oh5YCtJzGPuxBf0rxjHspDaLcMdD38Xadrfh1FDla5/D1zlSmYf6s/vv3cAmOecR7H/4CYw6o6hjjoMJaNA2/gs3nVi4AQ9u60Ob007tk4KjLRjCaDrhX9/xI4fxH//+ZOSyVYhlw1dePYy2tjYsvuVTWt94EG9BmweJCx4ErN33PQDsEhBwR28GBhis4LBuYoJYAUhpzQa0l5/FaEnmxK9iBYNw3nMCNgeSEg6J9hqIzlg9UC8QPUq68HUcdUGuBXH/Cgmh20/Ogffrh7xAI8Zkc9248lXsK1CunBnESSKxJPatt/+IG+fegLnsj3rEg1i/seMR8x6ICOWPuCxK7WAghn4Vi0g8PNGHtR4wfEb84liN4wrE3k1V1c1gQJ4u2uxgF1AtiNWbtco8F1TdwGprEBeSGvEtCKCpTcE4xElyYplOqBBzgDnIaUC8df5BllKMaRHQ/cotYaAWxCyqTg3txomuLZVIHJZ+8MkGQlwB3lmPaYiF0WTKUzSYjUKc5OnEsqWfxqqVXaygykyPVx6J/RD/6dyf8eKLL4P/HX7o6YML6kqccPJSPSK6Di47kdifTmDhIpTOntFzYi2FYGM9tAAvBD16C3gsVyud8KKtyGWnvPRHf2xWGQf6Bel8M1TSKC1t4vNhOXrlviC1gNi0gYxBnPQ5MbcEf7TWxW7gVnR24JprprObuwrEf2HVhHga8dZb78Qwmvs1j2M97MbOba5GIfVmbGpoEFO9JezjEFelGXBzWn6TpjwnluDz3Bk8JxXncM8kctfAZ8vhN3baTRi7oeSpyzxxo+dPc/Sf1ZvUEVYut4QOkTZxiPtXyOqm8uYyhvly0sQYxGms//rrr8ea1d3slx7TccMn5+D0u2ecx2phZWLTOGeiMQKimz+3TTQudYplAashlivgAF9hNds++MDOivJORHbybPXRXYq/KYzlytZtlAuI8+Ae5xGXl04U7yvbZh8QxDZ7h+YWywIEcSwzUSObLUAQ2+wdmlssCxDEscxEjWy2AEFss3dobrEsQBDHMhM1stkCBLHN3qG5xbIAQRzLTNTIZgsQxDZ7h+YWywLWQ0yS/Vh+bOlG1kJMkv2W5rKuxRuDOOmrmFZL9usyLTXOygLGIC6kZD8rr8jz+F6Kz/r0eTmfUYi5EZLIk6yV7OfFqy02T+MQS3smEYoal+xrUnYxUy7BH1kdILMPIcN5Ib6M4XYmHnUk+Pw1zIOYt03I6qXcn3/kf3le/TlQVu8XlUYoQloMXHW5mUHMT2qXZF+XvGuABcjsQxlx2pZEPQk4amV/fQlP2h8BsaYE8WT1uorZL8vvvnsBRg/IF/Fbl+LMIE4SiaVbTEn2q+pDSP1cPTXXfG39Ko8q6bwq0lShDpTVq5E45ZJcBWLeOMRJcuJsJPssgmlf4YoaoxkQC6h0Wb0aiQnisOvOKMR2S/b5V/92tA8GVMw0CbGnlhb57YRbtSdYVg+tKIqeTrBSW6yUQJmVEmj1wxjESZ8Tc4dkJdl360tIKbuLQpA0PxKSetIJX7204aEy1s53a0AEy+qjb+x4WQCnTkaLH8YgTsOuZiX7eukpZ74FLCyShh9sH8NqiKXxjEj2fUUA+bnCarAFVbx05qZV2LTd1cWdXy4gNmZ+XzpRtBplxuxm2cCtDbFlzqDpJLMAQZzMbtTLIgsQxBY5g6aSzAIEcTK7US+LLEAQW+QMmkoyCxDEyexGvSyyAEFskTNoKsksQBAnsxv1ssgCBLFFzqCpJLOA9RCTZD+ZY1upl7UQk2S/lTBsbK3GIE76Kma6kv3GjJOH3vE2uCn2C/XGILZDsp8HDBubI0EMGIWYuyeJPCk9yX5jgOShN0GcAcQShCRC0cYl++zsITq66B3rmfTH2WF0vjt9T3bvvkg/yTY6XCs+469vHpr/XbFzktDpQd251B3CLy0KvkDCJPnqRotCffKaVFbLkfSNy93yAXLzSaHV40qSXqFk0d6FDjmvEAnsxxZFwW3fpW08EqtLbo5kX9lHmQO9GXiGbV/b7kjrg3es9ys8Kpuacxgq281KeZN8D1lVOusboQeoSAJYCJPka/o7sYYBtgYIuZNXEqDqYlkEV9bPtXqsDoYE1ycI0KM5B/p+YA/THpZc+ZYj2WIXja1HZhAnicTSaIkl+wEaOrldLd/GNnjH+jOidoTPZQ4AunBTbmp+iOncRnlzVW+nXDDlWLKn6JsvXV0itXW+2hnOns5Bm0D6/7u/FIAo9KIsuW6tYRMJNw5xkpw4Ncl+BDxR+ySH55k+GPwSJ000WoloE3070Cn2Zw73dRiALqgdRx/FwAGmbBbnHHAEomlBrHxbqROsR/VdVIitk+wzp5cWnmEy92o9XVWRk00A33jcibBMGl9i0viyP9JFQuxG5gdLh3GiazUmHhNjRTg7WJKvVwGSm6JLlbP/goszBnzrCC0F0OoQJ31OzH2cnmSfA8hvsvrQJuEReWH0jvW+GzvW180L64nE/ITihiy2oFS/wZKSfDWVmBoaxFRvCfukVN9LmWTxl6AxDvvSjNqlAJwLuNUhTuPbxaxkP40Z1h4j3iOw2uNQi3ALGMuJ0zS6Ecl+mhMMG0u9uXPa+KNkpaPtTwCyMFfSc+QC4qSLa14/CatS3615kyn8mQniwru4+AskiIvv48KvkCAuvIuLv0CCuPg+LvwKCeLCu7j4CySIi+/jwq+QIC68i4u/QIK4+D4u/AoJ4sK7uPgLtB5ikuwXH8JGV2gtxCTZb9S1rdPfGMRJX8VMV7If9MKNlCQ118nuzqNiDurWuc2dVi7PbgxiOyT7fuWDHT7y7zqq6/HsmGOeZmEUYm6IJPKk9CT7dkJM7xine4kYh1hON4lQtHHJfhTEQoG8F+iXGzKqCowoqf/4INp6hVqEpwLPlbBVjKEpn7uOYCdTJZcdI7gqD3CFCFwVcdBuTQ7g6vhsw0VPJiWVIsKo8h1kXaWinIcrlBUJFRfHdo7sBjZJYagdqVWjSGcGMZ9o9pL96py4Ao5POqTp5XwSe7/Uv52B68ApxpA5rTaGIn1nmr7qjR6VWhLKxePkyt74er2KUOm+T2W9sa/E5FiHMcB2KlXP6+bhIWUKGiWpif0zgzhJJJZ2SSzZD6jLULF1hIxd1FvQ/eI6X5f6R6uN1Vw3WkFdqWVRtSGkVmfCr/2T0v3KRTfBir6sLx9k0dZVMLvR160bUUtX2EQOGzq1cYiT5MSpSfYbgbjH3XPZf+gg1JDMexF8DOtZ5SAOlaOe9h8iku5g0T0Q4m0lDDz82wjpvgto58ijmLzzS46yGs7m6wcxb1vlvARxnddK0qcTy5Z+GqtWdmHmzJneGXkknjv3BtzI/sjjT+f+jBdffBn87/CjVk6sFhqpLiji5K9O5ZswqX/tug/dHKaRI+joGXO/3gMKnKhw+asAVWpOREv33fIAZUzNH8M+kUY8yCtWtZedikc8LyeI64Q46XNifpr0JPtBz4ml7i2qKg6bRCypf22IZakrTwjq1LBYwCKzUnXHlxOvax9HW7u/DpyeSlRJ98V8wWrDVYqs9MH7mSCuk+CUmhdBsu9G3ohUwmerqnQiJVsWeRhjOXGaRsutZJ8Zod5fZBDE9ZOTC4jrX5YFPWQ6UuevlAni+n1HENdvM+phmQUIYsscQtOp3wIEcf02ox6WWYAgtswhNJ36LUAQ128z6mGZBQhiyxxC06nfAgRx/TajHpZZgCC2zCE0nfotQBDXbzPqYZkFrIeYJPuWEWPhdKyFmCT7FtJi6ZSMQZz0VUwTkn11x82gXThj+yYnuwnFXk9BGhqDOOlL8R0dSzBr5ix0Ll/qvFccdJw//xFOnnoT5fFJTE5ORbgi6KX4BhTQBLGV2BuFmK84iTzJrGSfILaSxAYmZRxiObckQlEzkn0d4qAdOdUtbLWNEI+NaHKfBuxOXVO0QGYQ8znbINmXtlNrNqjQalA7u3VWtsd1gNZqSaToCRoqsQUygzhJJJarSleyHz8SV72gTjlxYtBMdjQOcZKc2KxknyA2CVQzxjYK8UT5fTz91JOYGH8/9trMS/arIV43riuEp4RU358++KvzxF4UNTRqAWMQJ31OzFebtmQ/8jmxKs1nerjhiT7MExVz+FzUEqwn2Q73bV3w6jgY9QwNHtsCxiCOPYOIhsWQ7KdhCRojygJWQywnnmfJPuFn3gK5gNi8GegMebYAQZxn79HcHQsQxARC7i1AEOfehbQAgpgYyL0FCOLcu5AWQBATA7m3AEGcexfSAghiYiD3FiCIc+9CWoD1EJNknyCtZQFrISbJfi3X0efSAsYgTvoqpgnJ/tp2xeHK9gO0tUAxLgRjENsq2Vf3iSOICeJIC3CI+ZFEnmRUsq/o5NrZLpyeqqMY/mzJVRiNxKpFkwhFTUj2oyKxquKA2CCxWuGs7mKvb/bobX7OLxS2re5+bGEbgsvNH1uSr0wWnRnEfDVWSPb9u3dKfR0DbyOe8LbBveOh+4E9P8HzZzmo8t9sEQJQvu+zXrNCaSc2OPd2Ec3Ela17kswgThKJpVvSlexXnB28GXgf2kQTCaG6oWIFXDciL/Ox4/QBi8R3lrFT7Kncunhls3LjECfJic1K9oMh1tMGX6krLibdzAWiY2xPZrnFbcR2t1SfIht6xVmMQmynZD8YYi0qCwW0lO7zHt33bUf7yBF09IxhgO9i7/y3HejHbvDUgh8ltvl4+ewZN+WgSJwZyMYgTvqcmK/crGS/Ylu3zhow/DOW+4JF220ilQiQ7jtgbuqBnufqN3bACPY//ARGCeLMAOYnMgZxGquwS7IfkT6ksVgaI7EFrIZYrsoGyb56c5fY2tTRiAVyAbGRlccdVFYIUn5dHbcrtcvGAgRxNnamsxi0AEFs0Lg0dDYWIIizsTOdxaAFCGKDxqWhs7EAQZyNneksBi1AEBs0Lg2djQUI4mzsTGcxaAGC2KBxaehsLEAQZ2NnOotBC1gPMUn2DXq/IENbCzFJ9gtCWAbLMAZx0lcx05Xsp2PBRKpoRcaUzizUUeK+UcfbfRGT/FXTs+nPwpYRjUFsh2Q/HTMTxOnY0dQoRiHmk04iT0pPsp+O2QjidOxoahTjEMuJJxGKNi7ZF1+7e4F+psqQknpX0THfnZrvFcugz7T6FH6Fh7qZI4Q8X6id5dprq55DpP/QxahynI2spocnUJXq7aB5nBXpxFAZa3t73Okoam8E9mFtclZyIDOIuf2yl+wLCFTH+aRDmkDUARSuxIjNt7RmA9rLzwJ9osjKkduYhKmEQ+JzOJBJ4Sjr4AlKWR9+ocw/6OnvoqKQrtVbhO67F2D0AC8J8ACwy52LHHuAKahd+Pzz2AKI7Xyx8LO4ozSG519b4CqyNdBlv/C5lwOlWKbiaOPjZgZxkkgsl5dcsl99Y1OdGlTaTEhYDzCxp3K4fQYx1dtXAYV/Lpytu8HV2U3Ehjj65kv7ZmAavh1s7CqIQzV9/rGVn33fFu4a8qkRNA5xkpw4Pcl+MMSdyt7NbjR17+CjIHYq+exlaudNSgSMeALhwBcrEodB7KYYHUfVzdNLGEgTYlalSCq1tQsxZ0JXoxA3X7IfAEgd6QSYBL/EJPhqTqzDqZa04hiw9gvPMNl+Ja8MhMT3DRos/eepQOXxmBuRy24k9qcxInf20glvHhGR2MmXlRTEP/cclRwwBnHS58Tcv+lJ9oOjXOwbOzYXfjN1vEctPChuwiZEvQnt5oh18PLvyk2ZV6MtNP2rlv5zWNV5Tg3xdKaEfQ7EoubFCvYPeWMaOA/4nhP77BE2d4rEjSfqcgS7JPvprYtGStcCxiJxmtO0QbLf0Hr8Ec8bTNxINTQ4dc4FxOQmskCUBQhi4iP3FiCIc+9CWgBBTAzk3gIEce5dSAsgiImB3FuAIM69C2kBBDExkHsLEMS5dyEtgCAmBnJvAYI49y6kBRDExEDuLUAQ596FtACCmBjIvQUI4ty7kBZAEBMDubcAQZx7F9ICCGJiIPcWIIhz70JaAEFMDOTeAgRx7l1ICyCIiYHcW4Agzr0LaQEEMTGQewv8P4+zgHXUwCb1AAAAAElFTkSuQmCC;" vertex="1" parent="1">
          <mxGeometry x="60" y="120" width="177" height="205" as="geometry" />
        </mxCell>
        <mxCell id="dpX90u_CL4Nn1USDhQHo-3" value="" style="shape=image;verticalLabelPosition=bottom;labelBackgroundColor=default;verticalAlign=top;aspect=fixed;imageAspect=0;image=data:image/png,iVBORw0KGgoAAAANSUhEUgAAAIMAAAAcCAYAAABCrQzwAAAE0ElEQVRoQ+2bUUwURxjH/ycc11RtYtqkqXBcODBISmxCU1E3URBNaxFDmhONKaVNGstTSSCxL/RJX2oiBp+ISdvQtEbbq7VFUROBB3tia5uatGltKFgUxAM16ktBUDozu3M3e9ztMZust4HZF3J3M/N9832/+X/fbIKndM2rs1CPigCJgEfBoDjgEVAwKBZiEfBom6pUmVBAsAgoGBQIShkUA3MjoJRBUWFfGbKzvQgWl+DeRBR3xqMqlAsoAtLK8OJLuajd/S5uXB/A2VNfL6BQqK1Iw5BfsArbauuIKtzGt199qiK4gCIgDUNx6Suo2Lodk5P/4YuONswumotpJT7uasY6kvzRcBP2dg5JYkDna4jUHECv5MynNVwahrJyDa9tqCAQzBIYDjMoFsVT2YozWgTVB/psbncBwrCxahtK1pTh6i/9WLb8OeT6C4DZJ7EAzTx5jNPffImHD+7bDJo7pxU2dOCI/4SCQUzP6zUheH0+jN74F2u1iqSZu3/vLk4e+wzT04+sMxtswNH2EHLZqFGEmxrxOVHfza1d0CJtQLMuy8BPOCTIK0tMSJ9FNBsfNnZiEPrJGwnnIWT8RuX8uL8dLeXC+qA216PfsEV/ofZa0JY60VQVmtkicV+SfWeMSObfnq4uYy90CcNWiv3D2AsNQQuxW90UlvfZxpmSLhM76upx9cplogrLSbKn4fHMtZq1JAvj0THcJdfP1E+CbNLA7AM+IYkN0OSUcwCCeK+jHXknarCfKnSCXNPAf4SDpIYHWE3383puJIvXd/Fkx+fQuj8/+TYrA5nTCuw3SoZpPWYXMXgLKxsQGO4kfQKF0I/jMaip3V0Y4VAyMDikRn/CoSFe2vFZlgcpGLKyshGqfx+/9l9E1Zu1eDQ1SYCYge8ZHykVHkyRz15vDnJ8Ofj5xz78duWSBQviaePDdABAYNh9M96k0ZPLP7NTzA9pbBo9aUgSXCH4NEm7buoqIoA3OM9eYG6Z0CHlAsVPu+irafMs2Sn8MQbG51KwBVDo7zZ8dhSGZ5cuQ907H+BiTze2VL+F3nPfY+CvP7D5jR0EhClE+s6jtGwttE1b5wdDioYsMaCJMGgRQyVMu0120lIFnyaSyNDBRgzvoSUp2XrmUJpgMJ1i/dTyfkIKhoT9W8IAeZ8dhWHF8y9gZ/1e9HR/p8Nw9gcMXPvdHgxMnometvFEBFEYHMKg0TOkUgZWJgQZRpDMGyLz2HqJsmtxEsk6R/Mj6F+vYbgx/XXPBIOoMixJRCFGjD7A0j/xapmuTCQoA82spM+OwrDSH0BN6G1cOHOSwTD495+YGB9D0epSPJ6ZwfV/rmFlXgD5BUXplYFLX6yBjDdWVspAp5kaNPL5MgNKEgYDxnVCXbYKnrlMiCWCNL7hEYT88Wtncv+MRpWWON70WjaQSWCQ9NlRGIqKX2a9Qk/3KfbX6knbM8h66sB4/daSvkQ4YNr2kk76LNVAZnu9KChajYnoLQRXlZDXC/H3C+LuPEs87OoZHRu1vWnHJ4oNGTOW0BAKDujK47hH6Q3M8Tn9FJkRUjDILOzesTzp8fca7vWVe/Z0fF6EMLg/9ZnyUMGQqci70K6CwYVJyZRLCoZMRd6FdtX/TbgwKZlyScGQqci70O7/LTQN6hYd2LsAAAAASUVORK5CYII=;" vertex="1" parent="1">
          <mxGeometry x="280" y="210" width="131" height="28" as="geometry" />
        </mxCell>
        <mxCell id="dpX90u_CL4Nn1USDhQHo-4" value="" style="shape=image;verticalLabelPosition=bottom;labelBackgroundColor=default;verticalAlign=top;aspect=fixed;imageAspect=0;image=data:image/png,iVBORw0KGgoAAAANSUhEUgAAAXMAAABkCAYAAAB0HtAFAAAVHklEQVR4Xu2b3W8c1RnGX/6A2ISPSE2TOEqCNpjwISoBTmNXloIoAS4QrVEiS7FEbqogJC6cu/jCucteICEibhrJkaxEdVtxAeVDRLJiUwxcVNAmBqstxHEaqgRC4vwB7fmcOefMzO7M7Ox87bNXXu/MOe953rO/885zzt6155Ff/I/wggJQAApAgUorcBdgXun8IXgoAAWggFAAMMdEgAJQAArUQAHAvAZJxBCgABSAAoA55gAUgAJQoAYKAOY1SCKGAAWgABQAzDEHPAU29PVBDSgABSqqAGBe0cR1I2wO81s3b3ajabQJBaBAlxUAzLsscJWaB8yrlC3ECgVsBQBzzAjLZkFljgkBBaqpAGBezbx1JWpU5l2RFY1CgVwUAMxzkbkanQDm1cgTooQCYQoA5pgXsFkwB6BADRQAzGuQxKyGgMo8KyXRDhTIX4EUMN9MI6+9TvdemKR3vgoGPHioSUM33qDTH1/LfzTosSMFAPOO5MPNUKBQBQDzQuUvV+f1hPmz1PxsivYxqddmJ2jsrZWEovP7R2n+qWP0fsI7cTkUyFMBwDxPtUveVy1hfuAkLY3O09DkBynVB8xTCofbclYgA5hL2+XJ+3jkN+hf3xDdc2MWNkvOicyiuzrCvPHqH2hmYAYwz2KCoI1SK9AxzLlH/hydo+bZv7GBSrA/8DU881JnPSK42DBvHKW5M+O0VbRzhWYPv0ynmHtxoLlEo/PTRFPS1iBapBOGPSHAOr5N9n5llibGTtEKycr38uwAjavPuB3CAXx82GifeJ8jdEH1xT/h/R2n6WhQ86p8SjTixxL2P3VFWHxHPltSY+FNqL4ixk9qLFyC46zfocOzyWOu4sRBzKVQoEOYP04vTu+nH98+SQvfy/FgA7QUeU0VRDyYO7YDB9sJBi8G5p0crsMa4A06OjdD22eGaJKbzY7dwcF5gqaYh71DeNoD2s9WsNX+tllZ+/dw3zue/WFX5uyeJtGkslys9kS/5C0+jQNHaee/TzGfnC8iAzTjLUq83wm6rBcVAXa9yCh/XkOfRZkm5lTJw009rwBg3vNTwBcgFsytylbfKwFODOYTq/4mI6+c9XtRResi2buNV7rstgAcDXjy/iZWZRVvLBwrMb3woM0iFxn9gKCrbTNWa0oIWEfEoy707+ULkwF6/nmKmDEloUAaBTqEuWur8Er9IN2zCJslTTKKvic2zCM2FF0gujAfnVdVujXQsEo3Cp4cxNzDeJm+O8ItnbD2bBUtmFtVtKyatZ+eCObO+FvCnJLHXPQ8QP/VVKBDmPNBS4DvEuO/RJ8vbqIHCBugVZwOsWAu7A3mR0xrkDao0VihFeWZR1XmwmYxbAx2EzXYTdIzd22LFpUwa2duxzxdGBml78baHxe0YG5W+QKyrEJfVT54y/jMo4ntbBanMucTIWHMVZw7iLl4BVLAvPigEUF3FIgHc2UdeBug7L3yiFtV5sJxMDdA2ftPxIKQEOZqMdln+NKt1LBtFtNiYRu3s6s0PuAfWwyPT220cotIb9q23AANgXnCmLuTXbRadwUA87pnOMH4YsM8QZvduFSemmlvsXSj77RtVjHmtGPFfcUoAJgXo3spe60EzM0NRaGis6FpKCsr/xJIHYi5BDEhhNopAJjXLqXpB1RumGto++fa0480rzurGHNe2qCfrBUAzLNWtMLtlRvmFRYWoUOBHBQAzHMQuSpdAOZVyRTihAJBBQBzzApPAcAckwEKVFcBwLy6ucs8csA8c0nRIBTITQHAPDepy98RYF7+HCFCKBClAGCOuWHZLJADCkCBaioAmFczb4gaCkABKGApAJhjQkABKAAFaqAAYF6DJGIIUAAKQAHAHHMACkABKFADBQDzGiQRQ4ACUAAKAOaYA1AACkCBGigAmNcgiRgCFIACUAAwxxzwFOA/GsILCkCBaioAmFczb12JGr8A7YqsaBQK5KIAYJ6LzNXoBDCvRp4QJRQIUwAwx7ywbJZbN29CESgABSqoAGBewaR1K2RU5t1SFu1Cge4rAJh3X+PK9ACYVyZVCBQKBBQAzDEpYLNgDkCBGigAmNcgiVkNAZV5VkqiHSiQvwIpYL6ZRl4bJ/rjSVr4XgfM//c63Xthkt75KmwQj9OL0/vpx7fNe/IfLHpsrQBgjhkCBaqrAGBe3dxlHnlSmG989Bl6+PZHtHB7D73w6920wYzo6hd0dvFK5jEmanD7Xjo0tFndcoeWP/yIvvwpUQu4OEKB7cO/ob1b2Id3vqEP3rtISWXl929b+xMtXIbEWSkAmGelZA3aSQbzu+mx4S20usi+yBs5zPvoH+c+pdJ8N92Y+PtfEn2SAjzZptbXjfRiWBrR4o50G40c3EJXOsg3YB5X6/jXdQXmg4ea1Lh0juilg7Trh3lqvvlf2Czxc1LYlYlgzuG4Z53e5dV3GWHOq/KtV4t/Oghkk4FwmGiB6bZ9+Bm6+2IFnxYyyDdgnv3XvGswf273JfrL1Awti5jhmWefuuxbTAJzz2LhVWWLL7f80n5BNPQE8adyomv0qVHR8XaeHVQGjffILiu/9eUNNKg+u7N8nv7Rt18+2pOyTIg/Efyc1gz7RDz+E7d4iLXB+gyzAQTo12m5fzfprq8uGY/8lj3jxzty8Bla132Ja8gbixhH39eqX1a1LhHt1RaPtpysdnX+dPusYn9+vxcPH++7X91iF6kqOKw93oTQXltcvpUkdF//hvoH1Wdch4t99KyKSbcv4t76H8Mq4f09QWTq4Uy1kYO/Ubkk0rp5tgu/1rTYQuK7tUdZNNZ8iBo/sUXPn0ML584LnbauaX1YI04usv9mVKPFDGHub4ryynzoxht0+uNrSgXAvArTIT7M+RdvkG69p2wV6wtrwJYZqfJLbgOr76ICp1M9c7Dso88ZxPoEUPo10BQELQAJcF4h/x4DfMZi4UPGWEREext8D92CgV85C1Z6Md0SY3l4XUJk46N76eE+tgitsT0DtqD5laaE4RYNNHehY32N0KfsHsOm4jyyPGSu75NEf+VVe6v2HLvDsJL6ue792s9WbeiFzYrJ7EuBsd0TTeSYuGLB2L2FYeM2eqx/nb5kenEge/NAjV9rK9vwgW3PIbWAGZYZqnxJl5Qwd0+u2LAGzKuA7mCMsWFuWixedRjumZsA5Jea761qTocjIMir6gf9KjgEHoeYxSM23kwvvIW1IvrScOPX6ftFvw7QFEx01e5Vml7763Ixu8iqbwE+Hq/2kDk4jdhFZS3fr24znkL0eBlgz763LhcAJyWy6o1u78t+c4NX3ywXLTIWHg1HH552m+6C1XZjMuxJzFnQRezsGcnWWccoYR0Vj7hK5egsy7E7h4ILRmf+fTW/rcGoU8CcaNPTx+jwgxfpzJvv03XWpvseMK/m9IgLc8ti6RDm4eBwANYK5gaI+eN7NIiMNjkEAzBXcBEnc3zrxrdP+MkcVQl/uE4Pi/0CBvHn2SLG7Quvmm0BX/akwiv6gSuf0pfMIhrZdpUWTCsldEOxDcwjqmgbgG3g6S2IbFxxNjadfNhWjdFXIpg7QG4Jc+OJ6fZgSfdG8mdAKpjzMDmwn9utAzb9cfmZbbPIc+hP0ry3AOQ/VPTYToF4MHcslg5gHvA6N95NG3+6xY65JYG5rOJe6L9Ka1u3eNZPoJozq/Ewv1v7xlbVrnzc2/4xS7FpuX6H+m5zq4Q/aTzDoiXqX+f2kLZ6witzfixy+/BeokVmT4mYl9U9yo4SXr88zrmRafET00IuIFHtuf42028j00/ZW65t0aoSFuNa+w9tZXsJYlO71cuBuaW1qtBve08Vpv9ux2cuvGGLj/bFg5U5D46NnS2kV9Z+Ttv48ViWi15/pYZ5rwtXx/HHgrlrsXgwd86ZK3+We7c+VGybRdxqboCy96HWQsvKXH2xTZ9awJABNnSjTcL/0J4NdGfDBnU23jyDbm7Esf8v36HBPv9UjIyXPL/dfd8avsZC6HnneibZG4D+RnHrSt/eAOUCygUhUWXOQ1D7EtZGcNQkDzv2qTdhWd6Xb++mPn2G3N1PCWwGa+1bb4Cac0iHFfDS6/ilTDAmwDyBWHW/NBbMAxAqhyqJNsECnnk5xlBsFJ2fHc89/tIeP81dCdEhYF6M7qXsNQ7MH3t+r3+KpSyjSPqDIMA8kDn7VFDwicm7oQy/7BXBuJvWZZmMxcUBmBenfel6jgPzcgWtH80T/lQfMPfTqG2QlD/LL2I+aGvOP4tfRBTl6xMwL19OCouoejAvTCp0DAVKpwBgXrqUFBcQYF6c9ugZCnSqAGDeqYI1uh8wr1EyMZSeUwAw77mURw8YMMdkgALVVQAwr27uMo8cMM9cUjQIBXJTADDPTeryd8RhjhcUgALVVAAwr2beEDUUgAJQwFIAMMeEgAJQAArUQAHAvAZJxBCgABSAAoA55gAUgAJQoAYKAOY1SCKGAAWgABQAzDEHoAAUgAI1UAAwr0ESsxoCjiZmpSTagQL5KwCY5695aXvEj4ZKmxoEBgXaKgCYt5Wody4AzHsn1xhp/RQAzOuX09QjAsxTS4cboUDhCgDmhaegPAEA5uXJBSKBAkkVAMyTKlbj6wHzGicXQ6u9AoB57VMcf4CAeXytcCUUKJsCgHnZMlJgPIB5geKjayjQoQKAeYcC1ul2wLxO2cRYek2BFDDfTCOvvU5P3mdI9cM8nXnzfbqeQr3BQ01qXJqkd76KcfOjEzT50N+pefZvMS7GJUkVSArzxqt/oCPfvkyT7yftKaPrG0dp7si3NDb5QUYNVqiZAydpaXSehuKOvZe1qlBaOwk1NczvveADmAP5OTqXCrKAeSfpy/beZDBv0NHmfjo/eYpWsgiDw+bMOK1OD8VeHBqvnqT9Hx+jU5kEkMUgcmwjIcx7Wqsc01JkV5nAnHjF/KvrqapzwLzI9Nt9J4J54ZUeW0zmXqHvxo5RUQ8GhWYuEcx7XKtCE5Vf55nA3KzMJZzPEb10kHYx+6XJ7Bf62QF65XejdI8Y1w36/O2TtPA9kbhvtx7sJfrL1Awtk23j3Fx8g05/fI3EgvHSQ54yzbfnWZt76J+qLf6BF8elR5gdc50+v2/Us4P+9WfDyomIJz/Zy9lTEphbFosAyyrNDozT+DY+tis0e3iGtp+Zon3i7SxNjOkK/llqfqb+zz76xKvE+f8n6PLhl1mlzf8epflpouNTw1KsxWnbUrAWEw6rGdW31naRTjzFQd+qv1G6PDtA4zJoWpudoJmBGTouuuRj4LHI9vh4Z9R19niic3mguaTaMuO3Y/XGr55MtsrBqth5x/KJRf5fxbST6a118TSMaFcE79hRYW2ycfJ4R7noUzo/Rhxkt8+1GnuLiyNz1VZH4uMYoQuGpkIfcvLqaq3klTpFxRCdg176JDXMLc/8G99ikYDWYOZSPk4vTu+nHzV0BUg1hCW4Xctm6IYCuAL7A1/L95uePkaH7z/v2Tn8/Qs0K2Ev+nmEVviCIMC/yVs05EJAarEwruPh8Xh+S/RuSs+/TpMlPsydSo/DfGrAg5+EmIah/AJun5H2yYHmSaJJVU1zqJwgGmOgl1AwYc6AogEu4DNAMwLOPly1Xy9AyyAs/WO1EKhrW/c3RQMaSmIMwwLoHFJWm04VzD87QVMKZhEzgN3TpGPKMuIa8JWJLQ4cxJ7X7VtVOwVIlcXExtt8+jxNvrVDLmp63Eqv41wva8wsBitG2wKz9zZsfQToWQ54mzyG48Ma4G7ejPgE2NV4xMIbT0dbNycOLaOTa7nA6LmzRBOrehGR8f1qQb+v0zcx3VhSw9wEsNk1h7kPY/ZJiAXjX0MOzB3w84bV/bzCd2FugdjcHA30yReNcaI/sieCTXaFL2M3F590Qtbhrtgwdys9DpKJVa/6tuEqKz7/S+hUuawKHWKwCsJcg50ra4Kevw9ZTDxAutfG6Y836SwYxpgk5JwMu08KYRPAqoD1U4h6UrCeVhSMjcVENKcWGLtpCdt/uzDXTyBuu2FaGVW9bFu2SU6e/LzxRcV/mtLxyGrZ0buFjivGwrESaRO5i7GeOzwGc04ofdi8GxLFAF75wNw5gdIa5qq61rlpBXNRuUtI/zBqnIoJhbl6AiCciIma9nFhHjjFEhvmZFdT6os/lhTmAb8+6vHbqd4i+2sPc69qjskMsaCNLKgFzq5yRRMa9A58tZ0jnhC+fSXyxIq7YHphue2GLbwRp2DcRdeGufGEYGmQAOZGRf/dEbPSt0UNt7RCKnk17wBzqV/3Yd7SZpE+t3k00a7spQ2jbRZRpbtHE9n/Xtn0d/rng4/QD29yz529LFuFZEX/4EW1Qcur/4NEnoe+mTb97BpdZx5+r7/iwTxkMy02zO3qSn5pWWWVEOZhi8ncjtMhtocNmuj+WsNcVJFTZPjYDWqsrLQ8xWOB0TypQ6b94gOKTPvJq1pZscwqYvL2FVi/DdYvt6rdytaydfx2eQVvHx+VTwZhbUbDfEU8XZn+dqPRYHFoz9yomFtV5vwLxuKc2zFPF0ZG/c1rS18W39wO+r23x+J/K+34YLO4vMoB5qzLVhuO3sam3hiN2AAVkUsQ72J/eRuj+n+Gby+tmU108777A5uuohkrHvbevLeHiR4L5mGnWGLDXHnR3objLK2OD9BkIpiHncywNzlFCpUNYlZ5a7NR/bWBOf/Y3ABl7/2N24gJY1osrPqeXR2n7cz7nWcwH2U2h9gYZi/t0XNv//iw9nKMzVfHqvE3gv0xi41bVsUH2+VPQiEnfiLabAVzaW2Zm8zmBnMCmGs7yLCp9CIrN6ylLWfbWraPr/eh/U3YHv7SGkNPAfPyCRc43tjBUcnyjS6/iGLB3KoA84vN74lBrMn2UI0fy5ibZPK6iM21IsIttM+gVoWGozoP5suIKsRLb3l9GQZUkhiqD/Ow0yiAearpFQfmR+dOFnq2O+xXp0fnlrzTMmLgzpNCKjHa3hR2HFLe1LZqb9t2NhcU/gvdsGGYm6Ahnwf3AoIb2tmoU79WKgxzbcf459a99ADmqWZqHJinarjrNzk2S+BER9cDQAdtFdCLn31+P+w222Zpf33brnvkggrDvEcylOMwqwvzHEVCV1CgpAoA5iVNTBFhAeZFqI4+oUA2CgDm2ehYi1YA81qkEYPoUQUA8x5NfNiwAXNMBihQXQUA8+rmLvPIAfPMJUWDUCA3BQDz3KQuf0cc5nhBAShQTQX+D6Wmf7Majv3nAAAAAElFTkSuQmCC;" vertex="1" parent="1">
          <mxGeometry x="300" y="238" width="371" height="100" as="geometry" />
        </mxCell>
        <mxCell id="dpX90u_CL4Nn1USDhQHo-5" value="" style="endArrow=classic;html=1;rounded=0;" edge="1" parent="1">
          <mxGeometry width="50" height="50" relative="1" as="geometry">
            <mxPoint x="193" y="228" as="sourcePoint" />
            <mxPoint x="283" y="228" as="targetPoint" />
          </mxGeometry>
        </mxCell>
        <mxCell id="dpX90u_CL4Nn1USDhQHo-6" value="" style="endArrow=classic;html=1;rounded=0;" edge="1" parent="1">
          <mxGeometry width="50" height="50" relative="1" as="geometry">
            <mxPoint x="570" y="331" as="sourcePoint" />
            <mxPoint x="100" y="401" as="targetPoint" />
            <Array as="points">
              <mxPoint x="570" y="351" />
              <mxPoint x="570" y="371" />
              <mxPoint x="100" y="371" />
            </Array>
          </mxGeometry>
        </mxCell>
        <mxCell id="dpX90u_CL4Nn1USDhQHo-7" value="" style="endArrow=classic;html=1;rounded=0;" edge="1" parent="1">
          <mxGeometry width="50" height="50" relative="1" as="geometry">
            <mxPoint x="202" y="228" as="sourcePoint" />
            <mxPoint x="287" y="188" as="targetPoint" />
            <Array as="points">
              <mxPoint x="202" y="189" />
            </Array>
          </mxGeometry>
        </mxCell>
        <mxCell id="dpX90u_CL4Nn1USDhQHo-8" value="" style="shape=image;verticalLabelPosition=bottom;labelBackgroundColor=default;verticalAlign=top;aspect=fixed;imageAspect=0;image=data:image/png,iVBORw0KGgoAAAANSUhEUgAAAHMAAAAjCAYAAACnzTURAAAECklEQVRoQ+2bu04bQRSGfz8ILIFiRRQlRZpYcohWShMeYNNYiqXQkS4xSoML6OI27lIYyQ1+gESRIllAJHgFF1yWPIhz5sbMrHdtcAZp2Iwr8HrP5f/OZZZL7cnT5xOEVyUUqAWYleDIk6jVG0nozIrwrK0/fhZgBpgVUaBCaYTODDArpECFUgmdGWBWSIEKpRI6M8CskAIVSiV05kOEufkFp8kI9fYPK/oA0xeY8TaGB01ke3W0v88JKsD0hZqDOMphppPtYR/NZeHkt6yMze4pkmyAqNnEEr9ygv0XO1BFw67vvpSBnezxlmfvtbIW0q9juvAG3bMOoCqNV16EPtkAsz3aAzodNApsl6Yrq1fEc43Bu7fokSse6wx78YdD9FWC1wO00h7GPL4EV4MITXntz6CFftSXeUn7YHFv4Ej6Yp557hA561eMIh3Z9SL/a2bMFFM9vaB4WrgycyrSn4HsKOE1L+antv7p50TPXwqo+xq/2j0wZ7uRSjyXABnsYkeOA5YEgdklYdfIUSsTYpHw3a0IEUZIWdJGNYlCUMUhRFjpzxsvQvyRKigGdp/cki8ea5m9XBUzYffRoYJb5cUWEUBefFIkBpR9zwEQWAZM36OK1IhD0bT8aB3H3C5uGiHe3MbaeQ/YMmNmRlh+Nswy/c3YzMKnnfl5wpJq3FSsuGx3GSsvIV5K4vGX1SWqQrTg5yTG1kWfuk8kLrpRAMvbnvJV1Jq5ihQfEQXBbOuJYNu3JoiyyycJ3WaIJ/IRk4NPH+bPKExVOBxOweFDTaK5OsoYpnOehmnmZOo/A6b8rYmCI6Gyap8yRsmmlCw3tnEsx5XdWWLkUYW13uMyZUIf4tE36rwDXc0LwywUcXZxiHiKut4WbyZM6OlzSR1VbE9Smqfjv8A09ZdTw+5MGrN6ZOrOYtWu94IA9upYjCALRv4URpU7XM2QRRdoy/E6TMhllPGRyAbVQjDzO5gEjuMxxnJnlnWmGJ96zNFNiOkmsTP1WJsNU3TqcHWEo42EF6k4OxjnApirx1gJJf6nmqVozN7sZVt/c2VZMD8SzIQWqjiIAGpncMGjaywty5OROYbNEUvvD7ImVlT1y2tQuyj//cIwp0c7Cg9e08ViHUDIjDjk3RGmBNeQPs1Vwx4nRgSzSEe+kcwDmPQ/SnKTrwBmqf4qFoMX81P6nHmrPWaWxX/wdfnIdp/8Ivr7BTN3qNIS2Y9F7qW7hUXj9MxWxX2/Hj7M+1ZoIfvq+VE/1y5k5o43OYV5R9/h4x4oEH426wEEVyEEmK6U9MBOgOkBBFchBJiulPTATviLdg8guAoh/K+JKyU9sBNgegDBVQgBpislPbATYHoAwVUIAaYrJT2wE2B6AMFVCH8Bsp4/tIlrm/MAAAAASUVORK5CYII=;" vertex="1" parent="1">
          <mxGeometry x="300" y="170" width="115" height="35" as="geometry" />
        </mxCell>
        <mxCell id="dpX90u_CL4Nn1USDhQHo-10" value="" style="shape=image;verticalLabelPosition=bottom;labelBackgroundColor=default;verticalAlign=top;aspect=fixed;imageAspect=0;image=data:image/png,iVBORw0KGgoAAAANSUhEUgAAAGIAAAAcCAYAAACajWq/AAAD90lEQVRoQ+2aXUgUURiGX5c0NQX/03RV1hsv0hsJ0yXEhMJCCDK0CCwIky4yVqgbu8qbhAS7SYQKiUxNipBQSpLUTQ3K6MKu1rLd9S8zSTP/1u3MmZndM+vu6o6iQ86A7A7nnPne8z7f+b5Z0O9geoYd6rXjDvipIHacARWgglAGB/jpc/LU0qQAGCoIBUCgpUk9EcogoYJQBgf1RCiEgwrivwMRmpwObf4VLM2Mw9xeh0XyqV4bd2DTPWJvZDwSj19GWGq2I6rdtoKJ/ucYffsYtoW5javZxTNlg/DfF474vAuIzsgn714atxba/s5irLeZ/LUA9tVdbPP6W5cNIibzFAJCwrE/+zQ0/oFuIy3NTGLy/QvMfvuMOcuX9dXs4hmyQaRfewT7yhJGe5sQmpRGTsYJh422hXmM9TSS8WXE5ZzHxLunGO1u9GyzrgT1tYWIpzOsaC0vw8Nh4GhlG/TGGsBgwGE6NoA7BVV4IzwppaQOdwv5VbC24mpZA0zIxc02PSytCSgUxqyt5WjS1qIik3k+uJhZ6BNicSNcvArU4GRVl0SrJI4w0l9TgFtkmnsNvmfUpkDsjYijEX+bPmDqYweiCIzFX2P4830IsTlnERjBm2TpvI+x7ice1PHGGUWDOSjXgdvE1CTOmEzRfB0u1tUioZk3ALmVeKk3OkzjDLmBapQ2JJHnGaAl5pc2EJrcPEMm4cTfU+O0zXSdcw2ZJwB06BDV0iTRoknQxycHo6HILCSAACWrz3HvC44tASEGNLffQ3BCKiLTciUavIIQjJKK5s0H2XSxWTBUyFjxnmYvzXDmGuCyGQREESxiprsYScGI5jHQTS5gnU+VJgoXl9XA6uNhMrF9ILGlIH5+eo2gWB2CY1N8A8FkNruQ3bRYOlgTHJkpieZihjcQ4E4ZOX7VZRg5x2S6i4Geyo/kdNA1CgExNfgKwXEpvoGg4g2AUHNBzEnRDcMk9AhPJ4IvOXD2DB1ZN0zWuZrhFQRf4uoTjejL0mOkTOw/rCbyvS4RjbT/uFzs6SJDFNh2l6aYQwU4kFsC/5Awhzp3IObHTfj6rBrcp8dL0qzJLFpiumjz9AhC3LjYrMk930B9ORFiFpOXASEm1SjoMQvJsbYMOl8adrxZc3o1AUGIO1KMWP0ZaPYEgAWxPDsNa+cD/Bjs8KFS7szUtSWG0eGmd3idL3MLsnsEGy8gNAoJxy6R33UaBEUnY3qoB+PGFqwuL8qUtY3L2IbtJiz7lsUPy+8D3na1JSDEABwEu20ZC9PWbXRSbij+dbgw3vm7xdOTpKVp/flyFG0pCDkC1DW8AyoIhWSCCkIFoRAHFCJD/b8mFYRCHFCIjH+tPkHbHZNx9gAAAABJRU5ErkJggg==;" vertex="1" parent="1">
          <mxGeometry x="90" y="400" width="98" height="28" as="geometry" />
        </mxCell>
        <mxCell id="dpX90u_CL4Nn1USDhQHo-11" value="" style="shape=image;verticalLabelPosition=bottom;labelBackgroundColor=default;verticalAlign=top;aspect=fixed;imageAspect=0;image=data:image/png,iVBORw0KGgoAAAANSUhEUgAAAS4AAAB7CAYAAADKdG2zAAAfE0lEQVR4Xu1dCXAVx5n+MLe4QQe3QICQQAYZH4BBgMAYCPEVXwGS4KPKMbsVZ+1sXEnZ8WYTbyVrKsnGWylc3sI2TmyXY8ckJtjYHDIIzOGDS9zYIIE5JFlgDhtxbnfP9Ez3vJl586R3zJP+qVKB9Pr8uueb//973v+1KBpx7RXQRQgQAoRAGiHQgogrjVaLhkoIEAICASIu2giEACGQdggQcaXdktGACQFCgIiL9gAhQAikHQJJJa5+A/IwecatOHXyBFa+u4T9W5d2gNGACQFCIPUIJIW4uvXIwqRp38aQgmHWjC9fvoRPNqzFhx+sRP25b1KPBI2AECAE0gaBhBJXh44dMX7yNIy4djRatGjhCsq5b77GxrUfYBP7uXIlwJsZ03+DtU+Ot9pa+3QJfrYsBXjnz8NrL8xGP7PrQ688iFkL9pq/Tcdv1/4AlQ/MhvWnuA2Rtz0RH4z/OVIx7bhNgxoiBBqBgC9xdc/KRmFRsW/zuyq2oK6m2rXMqDE3IiOjM66/sQSt27RxLXPq5Els3rQOhyoP4MihSt++8ue9ihfmVOJp66bNx7zX7seBWUm+iQVplWCNRUycTJ5ArkVefsTFx7wQcyr/C+MbxLhEXI3Y71S1iSDgS1zcSrpn7kPIzRvsOt3Kz/fjr4ue97SUHnr057h48QI2lZehT/+BGHndaKud+vp6bFizEpcvXcTYiVOxad1q8bv3lUgrJrbVnP7bcsytVC0sVl+QWX8sEqSayLESccW2WlS6KSIQ1VXs0KkT7nv4UfB/1evs6dN46bk/gP/rdXHi6tqtu/j44P592L55k3AbT9Z9iSOHKzGmZDK69cgUn69Z/i42lK/y4S3mIs6twgOzFkA6ZBGFNTdyrW2Z8b9PqsIrubMxR/h2h/DKAy8j94UnIJzOQ68q7ZoWkekD6i4gL+xFSrzeL4H/4O6hUQZrgfHjzYbW2haWTnw+/WnuKB/zbDbmcmPM/FLabIqbk+ZECHghEJW4eEVucXHLS8apeCyKW1rc4vK7VOKS5cqWvY2effqj8GrdBY2VuPjNb4S6jBtakMVvgZ+Z7hd3K/8TvzTiToLQcs1y7FdRV9YziCN3kREr459N+kDGzVQykjPwIy7Zjpvr+ARgxuNU4vLuz2hD1kH+dMzL+xwLPp+iWHa0sQmB5olAIOLi0IwrvZn9TBUorStbzn7ej4qYG3FVbPkE2Tm9kN2rt1Y/VuIyKjuJRbdeLIuEE5dirYlYWe7LVozJJpI8QRZ26N80bLQDgOAWlxqcV4k0UH/wsDA1lzTqElABQqBJIhCYuGS8i6PgF9dSUXIlrs0fI4uRVk7PGInL1UVTiAt6wFwjp5iIK/qJXUNiXOp4dOLy6M8xZgtXIq4meSPSpGJDIDBx8WZlnMsvrqV2X3z9GPE6REaHjtafK1yI6/ixI3j3rddRzf71u9xPFX9pxJXyVAvFcXIXmLj2Gm4k7HhUfn4+9u51RNXM2FOlZYn5u4ZG4N4+hXS6iu79OVxFZl3m5+9lY6HgfGxbnEo3RQRiIq6GANCmTVuMLillr0RMRKvWraAS15kzp1C+Yhm2f/pR8KYd73HZwXPVTWTxq1cqMSd3teEOxkBchvvJXleQL2ixCLv9+oUyzKjvcU1kwfPxLDhv1FGD/H7BeR7Rt/pz9CFdXyu+px0qBIeQShIC6Y5AwolLAtSxcxdMmjoDuKolsrJysGfndvHSKX9dorldrq5mcwOB5ksINAKBpBGXHGNmdg4uXbqEE1/WNmLY6V2ViCu9149Gn3oEkk5cqZ9yCkdguX4e7mcKh0ZdEwLphAARVzqtFo2VECAEBAJEXLQRCAFCIO0QIOJKuyWjARMChAARF+0BQoAQSDsEWoybOCVAEqy0mxcNmBAgBJowAkRcTXhxaWqEQFNFgIirqa4szYsQaMIIhJq42rZrjxsn3ITcIUPFElTu24MP16ygHPVNeEPS1AiBIAiEmrhuv3cucnr3xVcnDDWgLiwp4fEjh/H31xcFmRuVIQQIgSaKQGiJK6dXH9z+3ftQdWAflv3jDQH/9NvuRv+BQ/APRlzHGIHRRQgQAs0TgdASV15+IabO/A5LWPgeKrZ8LFanqPg6lsxwGpYvfQuf793VPFeMZk0IEAJIGHFxHcW1q5bh4oWLMcPM09907NQF9/zgh0I8dtnbfzUsrlvvQeeu3fDGy8/j9OmTDWo7+mBK8Ysl9+Lwjx/Gi58Dk59cgu8e+jEeWsR+CcNV+iSW3nsIjzy8CJ/Fezy87XHrMPPpsni3TO0RAnFFIGHE9cNHn2AZIGqEdRRLJoh+AwYJl/DK5SssA05Lkede6i3K/19m2SVaXNVCuJCHDsb79vUmrkFzn8Ozdx3G7255Gu6yHnm4/7k/4q7Dv0/cze9HXHlz8fwf78Kh39+CXzeEe4i44npzUWOJQyChxMWHffHCBZSXLcPeHdsCzaJk8nQMG3mtKMsJ68C+3SzOtR9XmJ5s334DMLigyBLt2Ln1E5Qzqy6+F1lcZHHFd0dRa/FHIOHEJYe8Z+fWQK7j7Af+FZ26dBVu4DuLX8PRL6rQsmUrfPuuOSKuVXP8CGZ+Z47Ipnr6q5N49YU/+aNiWiF9RKkv8KbpAsLr7/AhLtXa0epvtKww3bU0LTCjc3zxpu1y8nLj1v0eeOwxjBGf2m3w3wzrzqpou4ZiDMAGjMYY8+MNloWlj917ji7jqpqNpY/Zupd2m/HfdNQiIdBYBJJGXHygnHi46+h1deuRxeJaD4mP1aA8J6n7/+XfcRXLnrpr+2bU1hwHt8z49VcW7+IuqfvFb+THAHlj55Xi/txKvFiWq8WxjBt8LNYLUgtGXLmCeEyXjNX/RUk5fs3iYCpxuZHY2PUGefHPfjJakpVBJH1fN9tzuIOCxMauN8iLf/ZYX5uAxe8wiVMdO///OKyTbi2f4+PAf7M2+Nh/AunO5mHy3FysWlRmkGW/1xPn5jZ2t1J9QsBEIGnEFcTiGnndGCYSO4WpW1/Ciwt+J9xMfrVseRUe/NHPLBfxtZcW4N7vPyRiYBvKV2Lrxxs8eMsjkO0SJ7JJRic1jXzUeoIwRmtWFB+EVztigGb9mYw8nEF/b8ITFW2izXXOiZMeY6RnHKTLyykWlAHQRsy8ZZ1O2gpyRFzEC+mCQMKJK5YY1613fx+9+vbH6VMnsfRvryF/+AgDRxbrunz5skVc+3ZVYOads9Cpc1ccPVyFt9/4c+zE5Tg9i5m4zB6lSyfdQL0dxeKJkbgsa85gvCjEJa01RznXE0KHO0nElS73Ko1TQSChxBXLqWKbtu0w9+F/E+4gt7he//PzmHXfPJO3ruD//vgb63SxVevWuH/eT4TFdfnyJSx67n9wvv6cy8I6XEXkYRBTg/7M4Q42zFV8kqlMm6eLymlcLK6i+pqFp2XHZhXpKkrX0PGZFp/zmrthFdquImsjL49hwl73oFNFIoc0QSBhxBXre1zyhVOJGz8tzGRqQIVXXyOI7IU/PcNENi6Lj+WLqLKs7wupWhCde0tmbMczOG8GrvGmiClBBMlhxJQUNy33ySdZjEoGs+2gfyzBeU/ikmTlFZwfx4LzrG8jqK8cODgOFvTgvDJ3RuDitQ0zuG+4kE+blp1xWKAeJKTJXqZhNiMEEkZcsWI4efqtGFJ4tVWNnyoufesVZOX0xiD2Fv0/mDt4hbmLvfvmYsbt3xWnivLat2s7Vi17O9Yum2B5bzewCU6WptSMEQgNcc158Efo2LmzthT8Pa79uyvwRdVBEd/qN3AQBg4usGJdsvCZU6fwysL/bcbLKKdOxEWboHkgEBri4nGrXn36i5/umVno0KkzMjI6oHWbNmjJ4l78usTiWRfOn8fXX5/F2dOnUFdbI97z4j/yBLJ5LFvkLK33vqQr3FyBoHk3CwRCQ1zNAm2aJCFACMQFASKuuMBIjRAChEAyESDiSiba1BchQAjEBQEirrjASI0QAoRAMhEgXcVkok19EQKEQFwQIOKKC4zUCCFACCQTASKuZKJNfREChEBcECDiiguM1AghQAgkE4G0IK5evXLQhr2geviLI9b3FZMJEvVFCBAC4UIg9MTVmhHWd26fKb7ms7r8Qxw9ejxcCNJoCAFCIOkIhJK4uIU1qngEPt28DZevXEbpxPECmB079+BgZRVG33Atjh2rRsUOkihL+o6hDgmBECAQSuK65dvT0CEjQ8DDv2jNrS15qb8vWfoezp79OgQwJmgIvb6FB+8GFj77ToI68G82e+rjuAV/wcLlR1LSf9p0muJ1Shuc4jjQUBIXt7gmjB9rEdYllo/r4sVLaNu2jTX1Xbv2Yuv2HXGEInxNDZt9H/DqS9gZl6H1xoRHHsXo2tcw/9VPA7Q4CnfMBhYHKhuguTQrMmz248gsewZrjkYfeHzXKXp/SS/BiXleKer+9lMs3urfeyy4NWYeoSOu1q1aoXuPbpg0YZwgrgMHq7Bly3aRujkvbwCuKTZydm3bvpNl7TyI+vr6xsw/vHXZZrmjaAsWp8jayZ56HwoqXgp044YXxIaOjJH2r0Zgz1MBHhopXqeGzjAx9WLArZEDCBVx9endE+NuHM3SN18lpsUtrb+//S6mTS1Fu3ZtsXLVGkZcI5CdnSk+527jJ59uxf7PDvjAYFoaRhXsl08N07xfv6sIM0uy2Cc12LhAPmGD1tmBpU+9j0xuyfD2a8swn7l1ES7WyPvw0zvByga4EcQoef83o/ZZo7zR3grsK5xl9LObWU1lPcVTsDv7ta78D7Y7J/oaLlqpKy9DXSGzmrirKZ6a2VjPx+A7d1aRf156DAsta4tvyFkYzBvdXYaNmUXAGyZWfv0xN9fG1x0rMVDzic7nwiKZwXDynaeBC1+PRWzu1QJPc43UdXbrV/ubiW1FsYW13WbkOhnrJvux91rE+lnjkm1E1hGYBMAv2F7zmD+UdZW4m/3uqy3F6AJjDuuyH8fcrBXCUjf6q0BdSamxH9R65n409p6yJ0W5+F6hIq6BA/qLwLu86uvP45/vvI/bb53BlH5ailPFQczq6tunt1Vme8VOEbR3v/iCfc++yfhCPdIT6/hmNje+BHjY7PkYW8PBRkx1ZhZIwjOeNosZMYC3PXyb6ZI5xxBgAVn9B7Pft8iIj03vh5GI3PxqXw6CtOfEYlQR5YZbm0srx4anm/vG5oZJ+Hzjzi2sMAghWn+MQFV8XbEyb5QlgmDY5Zi7K1o+/WpjZ+XuwEtYDBVP0wXmxM+IwbXfCPwVt1G2yV0mrZz3XsuMWL+b8KV4SMa2Pxu817RxKvOfV4R98mHN1mFC9jtYw7DiDz7rAS/2w3wM3WG4icZetB8u6meB1i7A9g9SJFTExckpOysTWVk9UFiQL1xFfrJ4vLoG7du3w7lz9Zg6ZaIgsapDh1FZdRjV1bW4YMqYRUxYeSpbn3FrxXpy2IFnawHMhdPacq3jvuks60beFBqJGa2Km19YeW5PJt3aMp7iCvl63ug9GcHIG8LoR91U6pPZ+ZTWNp/D2nKSmk2ACNxfxBzMBwjHyrgR9JVTb5rITcyJ1H+eAltzzUR9y4rSbzivfjU81PVS23RYxQIX09LV99qxyAehdEMD78+G7zW/+UsyUjGOPJBR+458CKv7w4lbEAJqaJlQEZecRMeOHTBzxlQrOF9TU4vz5y+gZ88cobHIr40ffYoDByp95+13KqaDbC/I7iLvkzS9jsOf1whKfsbdSNvlC7RIERaHXz8KOVUbroVlQTgIz/nUtDetvhl1a8t9o4q6MfQH4ZIoMSMFqwmPME1I6XYGAchJ3E5iF224H0QYD4xq4YpmevbrfHDIQTnadKyT915zzF0ZP3xObROx14LMP5J81PErHouFs3yoeuEWZFFjLxNK4pp282R069rFdzYXLzIxjXeW45tzbrJkZlV+g0ysNuMczNLp1RvVR/nRvvdmEu5PrHXMp7L96oC5iKuBsYrLF315WL3Zxdj9quk28QoOi02/QRRigRLDsqwE4ybdqc3XZ+4RgWbjZu2x2jxNEhZCthELDNyfafEopKrOQbfoerM1OsLWyAcpNVbnmCcUl0bGiBauznZ122tLZWiA7welXwcxRlij4vWULe7r5LZv/NYvYXtN2UceYQv3+bsE19X6DuyFtQzzlDrigRJ9tzemRCiJq2h4AYqGF2LX7r3iNYiri1iEmV3cPTx+vAbF7GSx7ssTWLP2w6hfAVJdkToWF1rP3JOdzg3Dn8Rm8JH3E7SOTlRqLC0yFhBokdT4iVnBeWP7uY3auHfzV0W2GQF2db4+c3c91lfdGdbmfubWydO2QP25kroj7igD/yxwXle+gsX2/F/X8OzXIwjv7pqrgWm1XyWQLVxD7uo5AvvZZuzM8WqA277hZGrETg2C1B4Eidpr6gOGPQRc568dQtSwmNZfWCzwZu2hLe8FOX7xwMlikciC4cbhR4TrbOKk/T3Qzo+5UCiJi8+Cu4tnzpxl7261xR23fUtMbN2HG3Ho8BHxNx7X4q9IhPXiizyu+pmo773Y43extpI5uSDH+kl+qiZz+sH7SvE6uQw09r0WfLZqyWTGsKKNMLTEpQ580KCB4kvW/LUHz0B8tJkm8/MG3OCp3RRe79+MwoSpx7BGsRaG7ErsMTdfJtVC0JYtCU/yaNsktevkMroG7LVoc3T/vAGn4w3rKFCttCCuQDMJQyGX06swDKvBYxjJCG04e/VCnvqFgDgaPJemVjHZe80R30o1nERcqV4B6p8QIARiRoCIK2bIqAIhQAikGgEirlSvAPVPCBACMSNAxBUzZFSBECAEUo0AEVeqV4D6JwQIgZgRIOKKGTKqQAgQAqlGgIgr1StA/RMChEDMCBBxxQwZVSAECIFUI0DEleoVoP4JAUIgZgTSkriGDxuKI0eO4cTJr2KeMFUgBAiB9EcgLYire7euOHX6DMsUcVEgznNy3Tj2Bval602h/qJ1+m8PmgEhEE4EQk9cubn9cMN11+Ctvy8VOejllcUzpWb2wM5dXmmbEwB4yL6v5TtD88u3qZI28xpbaiXPIrOnemKYAPzEl8eV9EkJ2KEhbzIG/KPMJNTExXNy8dxcPH3N3xb/UxDXtaNGYu++z3CaWWAlTMJs/YaPLEss4avmkoY5cJ/ml2KDSDwFbtOnYPIks5xZMf1Gn2LJsxgyKSQCv8ZkllCzl8ZHri4euyzGNmLAP1rLoSSu1q1b4bpRxeDWFr9U4uLyZdddW4z1Gz9GYWE+Tp74CkePHY82z7h83piNF5cBBG0kSG6toG1FKxcDmadc8izoWBOCX/Kku6ItWco+D4p/gAGGjrhuu2W6SBQoJcqcxMV/v+H6UdjEcs4PYMTGhTO4vqL35S4ZFZF2lkkrLXzqD4awwa5qjC4xJL7sLI/OfER6u7Yck7sUlO4m+NVl/a+uwJA7XaTHAiyoU9rMSFNtSouxDLAba4uAMqkwEynZ5SXkoeXIUsRDpOgHl3eb/9Rf3GXA+LhVEQ41+6Yq1eXIymnJxTlddDOLK5eCi5TxUmXm1Gy2LMvnbqB7jSGQ4i1Y4sidro1Jim24KB+xXPbzF1SLvP9S2otP2ymHZ2kC+M7VXV7NSqHtV1eTNNOxsLZPHPH3l17zxj/QVvYpFDriuueu2zTSciMu7i5uZiKx/fr1AbfAvHUVfeSfrDzs2zDUUo0xb3Ir75RDKMASfDCIx06qp5Rzk4Ji6ZNta82nriQZVXpMyWMeaLGd/SvSYs4UzrYEmnThmHKPlG9jnUl3qdYh6qAKajjlwCLbNNIw+9UREmJcfEOVy1KfztHytjtk0GSqYe3hJLCV6kC6e6u5hSp+TtdG/UyOaccIO92xmebaIiuvOQjiUKTBlHKu8mpblf3lU1cqDUVK7vG00fbl2kcD8TfSVasSfbYCkzf+gXayb6HQEdeU0hJhcXXu3MkauOoq8j9OKBmLNeXrMWRIHr75+hwOf6EvjFVRzZcu/6gkwzOeukwxSNGW05VylM3OxSGkSGqEyesUreBPTFXYVPmc5Su3NRf5oBx1HVp/etnYpM28pcUYmbgmorMtQVsiTM3NLkFULQ9FvccruZ1qbbEmLGtHWYsIN1whDa6GY6fB1h9GnlJrXGZOI331IeQ2T7kWtiqTv3Sa2Qak6KwU7rUl7+SDQooEyzlEm6urvJq5L7hGoyYr5sDJ1kHQ5elUFogf/i6GgSq95ol/EyQuOSWerrl4xHC0ZimbVeIaPqwAdSdO4OjR4xg75npmeW0Teotul/8JlrwhFYLRrBXWosemiGw3Mn6hB1Ptz53Wi6Y45KvoE2CxHeN3Sn+54eEa9FUPEiJkyJRxOAhJfuJsU5c8k6V0ua8ImTILCx9dQmHJqTeyfSNFyMy5BYadByZR8NNWQD4UNfJVhGNNgjaIRBcZ9p6rFAmJlEKTDzC/ul5YrHFVTYoH/jFIr8UxMM/XIXQWl7o5OmRkCGVrLhD75ltLxKmiFNHIyGiPYYVD8fEnW7zvaKeijSVP5r7B9TiUHsfQNoXWruL6VTOVFDcFa9XK8qrL4i6xbTzntCNFHCY8Mt+WFlNvUm6NOMa55tkVmvahTXIOoVmGYTaTeOOq0xoRaqSrW5F3FG3BYpG33kE0ymbmloSlhqO5Q6qL57Ry/G8c+9UD9SblQra2lWjPgZGLQxrOUzrNGvcWFFhivQ4FH0FscJGHMzBwmyuXDLOsKQc2qpK0N04O61da78phg5vcGo+7NQh/nweta0y31pQyC/AMjlYk1MQlB18wdAg+40IZ5guo/O/8BdTNTOXaV1fRvFGkYjGXJ1v4Blh8oRTWawnmTbJQBJa/hx61YDnWDZVpVVGZk8BoC3iv4Lq7KxcpMSaD4rqS9R2/etyUZjetvXnZWC90EQNcbBOJWJEqmaW6yrVMWow1s+dZo72oklVq0Fxrh8UzVrPgPu9HCfJyrNZlRyp0R75W4H54obbFA/2W+66tIft7OTs4ydom1Mi1mJ2ck/WelC4/xgPz2GGqLrkFp93wUw82TOm0JbjJEpW1cCyswHy+r+7ORh2GY3AmXy/Fkndadl7BdQ95tch9YQbvVZycD2nlnTHh8mZKlzZ++Lvta+sAwYGdhn+A7RytSFoQl3MSQwbnMffwnJAqi9+VzsfVkdZW/HBpREvKk74RrSShahzwi4h7JmHYzbiLtCSuhKxXnH3whIzRo9Fwvl+WPg+CeOCX2m8EJHO3haMvIi5zHejrGOHYkOk5Ckd8Kz0nkVajJuJKq+WiwRIChABHgIiL9gEhQAikHQJEXGm3ZDRgQoAQIOKiPUAIEAJphwARV9otGQ2YECAEiLhoDxAChEDaIUDElXZLRgMmBAgBIi7aA4QAIZB2CKQFcfEvW2d0yEBNDfsiIV2EACHQ7BFIC+LiCQNzsrP8M0E0+6UkAAiB5oNA6Imrfft2mDplEtq1a4vVLHng8eM8oQpdhAAh0JwRCD1xTZowDj17Zos1qq+vx9J3V+D8+fOpWzPKApA67KlnQsBEINTE1Y0JwU6bWoojR4/hm2/OIW9gLrZsrcCevTyzVLIu72yUyRoB9UMIEAI6AqEmLp7hNCc7E2Wr14lR87TNXAT2gzXG7ym5yOJKCezUKSGgIhBq4hp1zQi0b9cO69ZvEmPmeegH5Q3A+8vLAq6inqlUZjQV+ZdqytC9RGaS1PPO87TGSzHLUi/hKXVFulyempkpyshLtqdJd6mZQwOOkooRAoRAbAiEmriKRxaBp23euWsPzp79GiOuHo4zZ85g+crVwWbpzINu5hTn+bXtVLam9hvMfNhOiSnWk5qiNiJvV2MFLoLNhEoRAoSAgkAoiatLl84YVpCP49U1QvxVvQ4crMLJkydZgP4C+P/9LzPvuMMKipDtMrOfLuQCo47c3bx9P+Jyk7CyRWRprxEChEAiEAglcc2YNgWdOnXEe++vwozpN2nz5grW3F3s2rULVn2wFl9+WRcdFylOYBKYpmjCa4vPs5mS9UsNIi5N5y76aKgEIUAINBKBUBLX3XfeipYtW2L9ho9QyCwvTlL8unLlCpa9txLTGbG1aNFCfF5ZddgbAk25xc6BDu4qStfQVFaxVKmjWFzCIrOkvVjXmgwVJ0FbvquRa0PVCQFCwAOBUBJX6cTxyMnJwr79n7OY1llcU3y1GD5/LYK7h+OYNNmFCxewjFlkPPbldQ1jpDKUBdMHmwU0afLMGnTPNGTI4JTicsje666lLXsl29OC86w5VdaMdh4hQAjEH4FQElevnjmCrN5l1hW3vIbmD0KXLl3w6eatQrWai8Tyl1H5O10NuSJiXA1phOoQAoRAyhAIJXFxNPhp4u49+wQw/EvWHTpmoLra+JJ13z69RWwrmhispyWmKgmnDHrqmBAgBBqKQGiJq6ETClKPLK4gKFEZQiC8CDRL4grvctDICAFCIAgCRFxBUKIyhAAhECoEiLhCtRw0GEKAEAiCABFXEJSoDCFACIQKASKuUC0HDYYQIASCIEDEFQQlKkMIEAKhQoCIK1TLQYMhBAiBIAgQcQVBicoQAoRAqBAg4grVctBgCAFCIAgCRFxBUKIyhAAhECoEiLhCtRw0GEKAEAiCABFXEJSoDCFACIQKgf8HNwyrWgRAgv4AAAAASUVORK5CYII=;" vertex="1" parent="1">
          <mxGeometry x="109" y="428" width="302" height="123" as="geometry" />
        </mxCell>
        <mxCell id="dpX90u_CL4Nn1USDhQHo-12" value="" style="shape=image;verticalLabelPosition=bottom;labelBackgroundColor=default;verticalAlign=top;aspect=fixed;imageAspect=0;image=data:image/png,iVBORw0KGgoAAAANSUhEUgAAAWIAAAArCAYAAABCfIJqAAAFWklEQVR4Xu2bz2scZRjHv/0DrBpMaAtaf7JFQwU9tAEjBFQwxYOIFSWQBU8SKXjY3rKH9JY9FIrFi4UVgtKIeBDrQSFghHgSLNS66MFUsBDb4H+g885Mdmayq+xkZn3fmfeTU7KzM+/zfJ6XDw/PvDk0ffLZv8UPBCAAAQhYI3AIEVtjz8IQgAAEQgKImI0AAQhAwDIBRGy5ACwPAQhAABGzByAAAQhYJoCILReA5aV7778PDBDwmgAi9rr8biRvRLz75x03giEKCFgggIgtQGfJLAFEzI7wnQAi9n0HOJA/InagCIRglQAitoqfxQ0BRMw+8J0AIvZ9BziQPyJ2oAiEYJUAIraKn8XpiNkDEOA/69gDDhCgI3agCIRglQAdsVX8LE5HzB6AwAgd8ZNvdXTmxBBUP3+izsc/wBAChQnQERdGyAMqTiBHR/yMXl05qV67q58qnjThu0VgFBHPd7a0PDsk7s0VzbS+cishooFATgKIOCcwvl4+gVFEnKz6sjrfz2nj9Hld+9dQGlpa72phG0mXXy2eOA4CBUR8TM+fe09P3LyoK1//EcX2dFOt16RO+3rYPd/dnNKp2cnoWmaUEd176oHo0u5m6hnjyJJnOk2gfBE7nS7BQWCAQAERB886Oq+3X5e+uHRNO8GfZp7cuNHS5z+aMcabmugLNvpbn5lr6e+ZeIyUF6RPV/XtbSrkI4HiIo675BVpuT2r39ea6h7vqrnd1Nn3ewHSuEN+KE13UxdMV91Y0vpHC3owcynqpBvvXlV3Ib7p1pqaZy/LPM2MSeY2gsXabT0XfD4TfM4PBIoQKCbijETTM2Tz+wu6+0Ei16kXz+sVrQXd85FQyo/vi/rXWNJFkuHeahIoR8SBFFPzYiPLPRGHQg3EHM2S06ONSNAPd2fUMnOO+VVtzW1E30v/blQePOOC2qHYo3l1LPJqIidqxwgUFLHUF+zOS2o9dT0+STFcxIuT3wTXxUs/xzaB7XDKEXFTvy2+ocumZY271n5HnJGqEXHy3ai7TYm4uR12vo8NezkYiz4tedvsWL8eBAqLWAqke+6Iejen1dhZDUcP4WepUUQ4wnhnWr/EHXJ4JE7J8bepo8e0czueM9eDK1nkIDB2Ee8bTZjRRTSyMK1uejRxS2uxzDOC3pcLIs5RXL46EoESRBzNfM+cuKEv+0fboo544s6kJoa+kMu+rJPS944UN1+qEYGxizjoiNcfvZLIN8VuvnNVj3yYdNL9S6aLbiuaI4fCbqjR6/VnxMn8uUaFIBVrBHKI+D9iNKcl+mOJvY44OyO2liELO09g7CIO58LBDDlNYm+eHAo3e0D5u5VoVJF5WRfcu/c5HbHzW6pyAZYg4mGnHgZnxJUjQ8D/G4F8Is4f1uCYIXph1zq9MXgmed9LuvyrcQcE8hMoJGLzom4xOCc8eA4YEecvhb93jFvES+tbyckIg9nINngpN7Os4OjacXVT/xxCt+vvPrSZeSER2wyctetDYNwijo6spUYTqTPBoZRTo4nMi7z6ICYTxwkgYscL5EN44xexDxTJscoEEHGVq1eT2BFxTQpJGgcmgIgPjI4byyKAiMsiyXOqSgARV7VyNYobEdeomKRyIAKI+EDYuKlMAoi4TJo8q4oEEHEVq1azmI2I+YGAzwQQsc/VJ3cIQMAJAojYiTIQBAQg4DMBROxz9ckdAhBwggAidqIMBAEBCPhMABH7XH1yhwAEnCCAiJ0oA0FAAAI+E0DEPlef3CEAAScIIGInyuB3EPccPuw3ALL3ngAi9n4L2AdgRPzX7q79QIgAApYIIGJL4Fk2IYCI2Q2+E/gHSblzI2vqir0AAAAASUVORK5CYII=;" vertex="1" parent="1">
          <mxGeometry x="450" y="440" width="354" height="43" as="geometry" />
        </mxCell>
        <mxCell id="dpX90u_CL4Nn1USDhQHo-13" value="" style="endArrow=classic;html=1;rounded=0;" edge="1" parent="1">
          <mxGeometry width="50" height="50" relative="1" as="geometry">
            <mxPoint x="245.5" y="462.29" as="sourcePoint" />
            <mxPoint x="455.5" y="462" as="targetPoint" />
          </mxGeometry>
        </mxCell>
        <mxCell id="dpX90u_CL4Nn1USDhQHo-16" value="" style="shape=image;verticalLabelPosition=bottom;labelBackgroundColor=default;verticalAlign=top;aspect=fixed;imageAspect=0;image=data:image/png,iVBORw0KGgoAAAANSUhEUgAAAX8AAABBCAYAAAA5Q6QOAAANoUlEQVR4Xu2cTYhUVxbHj9uQCSTaDSNoSxmpjB2S4MY0Y7UUGCHtSiQtSoMFzmZQAi6qd12L7l3XIiBKVg0lFIZ0EFejC4XC7kDrJpCgiQWJsRU0aTudgRmGmVXmnvtR76M+30fXq1vv/1ZW17v3nvM/r3733nPuc0cmk/mDcEEBKAAFoECqFNjB8H/t9TdT5TSctVeBP73xhr3Gw3IokLACv75Yb1gA+CccDAwfTAGG/z+3toI1wt1QAApIBf73338B/ngW7FQA8LczbrB6MBQA/AcjDrAihAKAfwjR0AQKaAUAfzwK1ioA+FsbOhg+AAoA/gMQBJgQTgHAP5xuaAUFkPPHM2C1AoC/1eGD8QkrgJV/wgHA8OEVAPzDa4eWUCAa/N8vUPHUeEPFH28U6ea3EBUK9EcBwL8/OmOU4VQA8B/OuKbCK8A/FWGGk9ukQGj4j340S+dyG/SPUoW+l8btpslPj9PmZfN5myxGt1BAKwD441GAAuEVCAH/Q3K0k/PH6LfPF2nlZfjB0RIKRFHAFvhnL35JlRn1Kv3Ch7N0K4rTaAsFYlIgOPxFnp+v4tENunb5Fm20NOSQmBzeo/oNohOiJrC1+hkt3XlBarcw4rTYrDl9cP1g/DsqX/9Gfe/+LP+9QQ925enwLvU11xf4Qo0hpifBwm5sgb+F0sLkFCgQC/wPni3TiXdYrVf0QO4GGP5n6O3HX3hh7psw5GTwl4dqAugG/1Ojum89MZxS0XHSTimIFlz0KBAI/tkLtHxthvbIHp5R9dxpulonmiqvUb42T1Qq0RH53apnda5W7XudcZ9VqTB9ler0MZXv5+lpdYxm9PfPqwWqjFVoLucdg6YWaa2gVv6qrbja2OMZb3WeJoq3EXUosC0KxAJ/ZRnn/GeIvjLw96aFeIKYeKV2AM7Fk4S+b7TLyt8zceixuCM53rZog04HXIHe4a9AXTMpFwbvAtGcAPF+Af+5nAF+li4sV2hfZYKKnJthaOdrHgAznBeoRNNXMqLPEo0J4E9f4VlE3FvKEU8A/FlCXEwEEt5N8G9tz/T0E4+d2YuLdOzOrJykcEGBuBUIDn9ql/PvDv/sI/9R0CjwvyS12HkPx0vjfihs6a9n+Gswe/1SwCcB/8K6Bjjz3vWZ/61W8b5LrshF0/sFeqp3EGolP0YVM8Fo4MuVvh/+XeyZyzk7E1tiATvtUyAE/JWTrU/7tF/5yxx+t7RP43ueSC7R4U2dNpLvEzgpHpMuYjva1x3sCwYsDqZAIPj7VvBmJDfs+W9++OdrehfQZBqv3iPAv409ahi1A5nZi0kg2BOBu4MoEBr+chDfS16msEtid9DqNFDHgq9MGwngy4KuqB2sbtDhEV0AlhPHKG3tGqG35MCqtsAXUj5Bwj1c9/YMf5mfLxHNG5BnKZutU13n/Nut/FUqR53Q4Uue0smKtqKhyvmHhH9be0SfZXGYQuf5VT2i3eQzXLGEN/1XIBr8+2Vvi11Dv4bGOIOrQO/wZ2i7C77isy6mdlr5S9b7C77ib1/LSSQK/NvYUxOppLwoPJtUU6O4PLgxgGX2KgD42xu71FseCP6pVwsCQAGvAoA/nghrFQD8rQ0dDB8ABeyA/wAIBRMGTwHAf/BiAovsUQDwtydWsNSnAOCPRwIKhFcA8A+vHVomrADgn3AAMLzVCgD+Vocv3cYD/umOP7yPpgDgH00/tE5QAcA/QfExtPUKAP7WhzC9DgD+6Y09PI+uAOAfXUP0kJACgH9CwmPYoVAA8B+KMKbTCYY/LigABcIp8OsL9d+M87Ujk8n88drrb4brCa2gABSAAlDAGgX+8+/fAX9rogVDoQAUgAIxKQD4xyQkuoECUAAK2KQA4G9TtGArFIACUCAmBQD/mIREN1AACkABmxQA/G2KFmyFAlAACsSkAOAfk5DoBgpAAShgkwKAv03Rgq0eBXDOHw8EFAivAM75h9cOLRNWAG/4JhwADG+1AnjD1+rwpdt4wD/d8Yf30RQA/KPph9YJKgD4Jyg+hrZeAcDf+hCm1wHAP72xh+fRFQD8o2uIHhJSAPBPSHgMOxQKAP5DEcZ0OgH4pzPu8DoeBQD/eHRELwkoAPgnIDqGHBoFAP+hCWX6HAH80xdzeByfAiHgv1uOPvnpJTq8+QWVr3/jWPPnKTr/9zxt3SjSzW/DGXnwbJkmXn1GS3dehOsArVKjAOCfmlDD0W1QIAL8Z+gAbdDa5Qp9rw0b/WiWzuVG6EfAfxtChS79CvQO/4+pfL9AT8+dpqv1YDpOldeosF6QjaaviMZTi7RWWKfC9FXq2BXfl6/RRPF2sAED3G1sk3bh6pMC/CzlqfbhLN3qOmL4565r1zHcEAH+x4l+GKWdG4t6lb9b7AZ4QhihrXtY+ccQG3TRRQHAX01MgH8/fyqAvwQ93XtIB8Z/oSVO/XDKJ/8LrdEZyj4y8D9EJ+fP0Ns6Ns6OwJU62qW+NN950j7vF6h4ajzSTqKfjwXG6q8CgD/g398njkcD/BX8v6oSfXKcNkXqZ1OkfP4qdgH18XID/gfPiu3ydZ0W4snhE6Kly2KzJKDOV3H8O10zELuGsx/Q4+u3aJfJ+T/8QNQPRmmt5KSV+h9ojDjICgSFP60SHcntVS6tzjdSMpw+ydcmqKj38e7PXdM+2Qu0fG2G9shOn1GVU0v7RcqnlGtI9/W86PunC/Kzc+8qLXRMHSjIPK2O0cyMYzP3YVJJ/rQPf54zw0r/ntCF5QodXXHtDkQ6iq+1Eunxs/IeM8Tzqr5Xp60WqCT61H51yi610oGzZFLbeaJSiY4o4Zv8zl78kirGgGdVnVJr9p9tq4xVtI/aJjK6TtI9V1pPakFOjFs/x17f+Z6G/xLyxmYiGUPxfJTvr2k/3M+Q6ocvr44ZlW6srosY6sC4njuiZu25j0Z6UaQNe9Y/xA81QtqH4b9Ij99l6Ffpt6NqEiABb2flT2TqAMq2R1QWMCc6JD/JXcFmja6JCWFDG69W/jXayuWJItQOQmiBJpYpEAz+JRozYNM/bNI/6PDw960CGYALRHOiHkAMNAEqN6hZ3sYkI+4tH7tLxbZFCAWfJpu5E5fdjbSPgHWZZvUExlARwJ0TE5GAo7GJ2c2+uu3w+u5qpycwA73Oj0Z7HfbLCckAX8FuX0VPtGYictVGeCJg4E1fYXC6/OfJSEyoBs5ywnDp67RjL3tbnTdPEFmaupihW1duC53EJFnUeX0d12mOq5zkxqjimrhNP6yRirfphycLMYEY4PvattSeO+G4BdI/3A83MvxXiFf07xJt3pXpH4a3gj/XAC7RgR/0yR15EmiUliT8XZc+IfSWngR45X/inVf04IZIKZ3Cyj9cWNPRKhj8vQVfNyxCw18Dyau2At1PPjhxoZgvN8C6A7XZZm6j4FiXIPfk/D2rb7NadQG9rqDIlypYele3xh4JfOqxsM2NOuhAPhvdNpuJqLFbMQZIWDI4Xf77oesqvHOzumvirfdUbO9ejPXsSMSOZUJo1gx/px+2wzuX+8dwf26tPfcRWP+QP/fo8H+pIL9TF3kd+HO+/xj99vkirbw0O4ANtfLXaZ+TVNHFYr73Parzd66jnnLXMHLXe5w0pKNoNnwKRIW/WTlGgn+bEz3+lalbfQMVJ8XQKjbNcOJ2fLntNvCXfU6u6JSJd4XdmOienJcnkPhSK9QOK+ReTzUZ+LfRoVVqytjs34V4VfD53w3+MoWidjs//82bxmv95HeCv9KvkS7TY0/HDv8Op4aC6B/ypx0D/L0jO/D3pny2VjmVM0o3BeAPavhnRTHXFIO3VtUOwXvOX00sTe8ThHQWzYZLgWDwF0lunS5RqzcnR+wBlF49r/tSK6xc81FPtXpr9CsAlM3WqS7zK96jnjKNwJdJJbi+b52f9vWtbeYuTG7bv4pu7AJ8PkjIL2eotjJJ+SenlRmu+oY7N57NZoX9rY60+n11P0vtdegEf2c3ZOoPok8xflaMX5cTU4CVv56EljM1ujeZp5+nux/FbKW78l/n6nUNQU3W62rl32LCbE77sBvN/ai2jk/+8bkNX631j/+3GwL+8RuBHqFAGAWCwV+kO1ZzouCrRvKsut3pElFwrK7P0D5dAFY/fNVGFnM5hy4KvGTqB75Ui1NIdrb1qlB5XvYxlzMVWVNE1UU/qtIE55QblwLF2LO9tEfXe7kfvszRTmOb2y5ZePb5ILnoyr3zZ+eMur/oqfPz/pWn9rPhtz9gbXToCH/dhze9YtJVIeBv0lieomqnJ6u54MsFaYa826bn1Sqtz4xRUcLfaKl0Vu97NBd8VT813/sl/t1Gs/bcvzwIMJgr/05i4jso0D8Feod//2wKN5JamRdbwD/Mi2ktbegpD97FetHHcmZpoN8r8KfwwsUjHa2w8k9HnIfSy+GAf7vcc/eCZO9BdRd9e2/lubMPK9GQljnN3EVf/qt/N9K4s9sx28iWWNEB4G9FmGBkKwWGA/7tYhsP/HsrLtv8fKk8uXpXoYf3EWx2NWbbAf+YBUV3/VNguOHfPx0xUjoVAPzTGfeh8BrwH4owwomEFAD8ExIew0ZXAPCPriF6SK8CgH96Y2+954C/9SGEAwkqAPgnKD6GjqYA4B9NP7ROtwKAf7rjb7X3gL/V4YPxCSvghv//ASwsgG6uzS+YAAAAAElFTkSuQmCC;" vertex="1" parent="1">
          <mxGeometry x="450" y="483" width="383" height="65" as="geometry" />
        </mxCell>
      </root>
    </mxGraphModel>
  </diagram>
</mxfile>
